<svg xmlns="http://www.w3.org/2000/svg" width="64" height="64"><path d="M46.1 0c-1.511-.031-3.19.1-5.057.451-15.71 2.945-21.446 7.583-21.682 7.78a1 1 0 0 0 .57 1.767l.708.049-6.192 4.121a.998.998 0 0 0-.394 1.148l1 3c.1.305.341.541.648.637a.99.99 0 0 0 .899-.152l3.043-2.281.462.927a1 1 0 0 0 1.567.293c1.38-1.25 4.763-4.217 6.928-5.767L7.098 56.703A1.002 1.002 0 0 0 8 58.137h1.545l-1.516 4.547A1.001 1.001 0 0 0 8.977 64c.258 0 .514-.1.709-.293l5.668-5.668.011-.006c34.823-8.994 38.588-22.07 38.588-27.281 0-2.378-1.965-4.585-3.254-5.775 1.851-1.322 5.55-4.289 7.998-8.37 1.75-2.918 1.268-7.551-1.146-11.021C56.014 3.376 52.647.136 46.1 0zm-.2 1.998c5.794.08 8.699 2.84 10.01 4.727 2.226 3.2 2.214 6.95 1.072 8.851-3.049 5.083-8.407 8.426-8.46 8.46a1.005 1.005 0 0 0-.475.806.998.998 0 0 0 .398.846c.976.732 3.508 3.067 3.508 5.062 0 3.708-2.685 16.498-37.246 25.387a.651.651 0 0 0-.059.017c-.028.006-.055.015-.082.022a1.003 1.003 0 0 0-.431.254l-2.87 2.869.616-1.846a1.002 1.002 0 0 0-.95-1.316H9.59l22.125-46.03a1.001 1.001 0 0 0-1.26-1.367c-.536.206-1.014.405-1.389.586-1.8.866-5.844 4.36-7.757 6.055l-.414-.828a1.001 1.001 0 0 0-1.495-.354l-2.89 2.166-.319-.959 8-5.324a1 1 0 0 0-.484-1.83l-.543-.037c2.96-1.571 8.711-4.013 18.248-5.8 1.66-.312 3.152-.435 4.488-.417zm-2.527 4.186c-.922.01-1.858.047-2.775.093L40.2 6.3a15.96 15.96 0 0 0-2.023.258 1 1 0 0 0-.725.55L29.1 24.568A.997.997 0 0 0 30 26c.105 0 .21-.017.316-.053a3738.19 3738.19 0 0 0 6.807-2.267l2.195-.735c3.207-1.068 6.77-2.369 8.44-4.29.829-.955 1.885-2.266 2.75-3.647.038.02.078.038.12.056.273.11.826.23 1.462-.2 1.03-.699 1.865-2.714 1.865-3.659 0-1.015-.825-2.866-1.789-3.582-.622-.463-1.181-.392-1.459-.307a1.258 1.258 0 0 0-.217.09c-1.7-1.022-4.35-1.25-7.117-1.222zm-.312 2.005c2.74-.045 6.23.145 7.076 1.573a1 1 0 0 0 1.43.31c.214.43.384.9.384 1.133 0 .273-.248.91-.523 1.399-.318-.37-.74-.444-1.03-.444-.38 0-.727.218-.896.559-.652 1.326-1.78 2.925-3.258 4.625-1.452 1.67-5.424 2.997-7.56 3.709l-2.198.73c-1.442.482-3.125 1.046-4.568 1.526l7.115-14.872c.49-.076.916-.123 1.266-.138l.396-.022c.622-.03 1.452-.072 2.366-.088zM17.408 21.771a.999.999 0 0 0-.482 1.9l1.803.866a1 1 0 1 0 .865-1.803l-1.803-.865a.985.985 0 0 0-.383-.098zm-2.082 4.333a1 1 0 0 0-.482 1.902l1.8.865a1 1 0 0 0 1.334-.469.998.998 0 0 0-.466-1.334l-1.803-.867a.985.985 0 0 0-.383-.097zm25.424.73c-3.137-.158-7.733 1.681-14.123 4.238-.486.195-.708.66-1.11 1.506-.096.204-.235.499-.314.637a.984.984 0 0 0-.223.312L19.088 46.59a1 1 0 0 0 1.22 1.361c6.098-1.98 11.85-3.94 15.231-6.11 3.391-2.176 7.038-4.756 8.356-7.394 1.072-2.145 1.675-3.543 1-4.894-.905-1.809-2.263-2.624-4.145-2.719zm-.666 2.021c1.492-.033 2.456.459 3.023 1.592.233.467-.153 1.414-1 3.106-1.25 2.5-5.733 5.375-7.646 6.603-2.78 1.785-7.612 3.532-12.615 5.188l4.88-10.82c.198-.242.363-.591.6-1.088.084-.176.211-.44.301-.61 6.02-2.407 9.97-3.915 12.457-3.97zM13.24 30.437a1 1 0 0 0-.48 1.9l1.803.866a1 1 0 1 0 .865-1.803l-1.803-.865a.994.994 0 0 0-.385-.098zm-2.082 4.334a1.005 1.005 0 0 0-.951.565 1.002 1.002 0 0 0 .469 1.336l1.803.865a1 1 0 1 0 .867-1.803l-1.803-.867a.994.994 0 0 0-.385-.096zm-2.082 4.333a1.003 1.003 0 0 0-.482 1.902l1.802.865a1.001 1.001 0 0 0 .865-1.803l-1.8-.867a.994.994 0 0 0-.385-.097zm-2.082 4.334a.999.999 0 0 0-.482 1.9l1.802.865A1 1 0 1 0 9.18 44.4l-1.802-.865a.988.988 0 0 0-.383-.097zm25.543 2.564a1 1 0 0 0-.385.098 71.668 71.668 0 0 1-6.494 2.707 1 1 0 1 0 .684 1.879 72.955 72.955 0 0 0 6.678-2.784 1 1 0 0 0-.483-1.9zM4.91 47.772a1 1 0 0 0-.482 1.9l1.802.865a.997.997 0 0 0 1.334-.469.998.998 0 0 0-.466-1.334l-1.803-.867a.995.995 0 0 0-.385-.096zm17.494 2.23a.988.988 0 0 0-.394.045 112.02 112.02 0 0 1-3.283.99 1 1 0 0 0 .548 1.926c1.16-.331 2.273-.669 3.342-1.01a1.001 1.001 0 0 0-.213-1.951z"/></svg>